<svg version="1.1" viewBox="0.0 0.0 220.0 190.8005249343832" fill="none" stroke="none" stroke-linecap="square" stroke-miterlimit="10" xmlns:xlink="http://www.w3.org/1999/xlink" xmlns="http://www.w3.org/2000/svg"><clipPath id="p.0"><path d="m0 0l220.0 0l0 190.80052l-220.0 0l0 -190.80052z" clip-rule="nonzero"/></clipPath><g clip-path="url(#p.0)"><path fill="#000000" fill-opacity="0.0" d="m0 0l220.0 0l0 190.80052l-220.0 0z" fill-rule="evenodd"/><path fill="#ffff00" d="m-0.3949428 78.26591l170.77165 -76.850395l50.015747 111.11811l-170.77165 76.850395z" fill-rule="evenodd"/><path stroke="#ff0000" stroke-width="4.0" stroke-linejoin="round" stroke-linecap="butt" stroke-dasharray="16.0,12.0" d="m-0.3949428 78.26591l170.77165 -76.850395l50.015747 111.11811l-170.77165 76.850395z" fill-rule="evenodd"/><path fill="#ffff00" d="m32.036854 77.84758l116.52055 -52.436394l15.7612915 35.016296l-116.52054 52.436398l-15.761303 -35.016304z" fill-rule="nonzero"/><path fill="#ff0000" d="m45.75074 103.63286q0.5713692 -0.29138947 0.81928635 -0.54003143q0.25575256 -0.26930237 0.25357437 -0.7309494q0.0056610107 -0.48230743 -0.37913513 -1.3371964l-3.9505882 -8.776871l-1.7381973 2.4956436l-1.3879509 -0.9517441l3.3673172 -5.918869l1.3108788 -0.5899124l5.4384727 12.082443q0.6285019 1.3963242 0.82803726 1.9918976q0.6725311 -0.37119293 1.6129456 -0.79439545l0.7567673 1.6812897l-6.2836647 2.8277588l-0.6477432 -1.439064zm14.89452 -4.5438843q-2.094555 0.9425888 -3.9740715 0.38339233q-1.8716774 -0.5798569 -3.2924461 -2.0994034q-1.4271812 -1.5337906 -2.325039 -3.528534q-0.86579514 -1.9235077 -1.0077515 -4.10421q-0.14836884 -2.194954 0.695034 -4.0137787q0.85124207 -1.8394928 2.7890625 -2.7115479q1.9805641 -0.89128876 3.8522415 -0.31143188q1.8716812 0.57984924 3.305275 2.1278915q1.4414291 1.5273819 2.3264618 3.4936295q0.86579514 1.9235077 1.0219994 4.097801q0.17045593 2.1678772 -0.63803864 3.9881287q-0.8149071 1.8060074 -2.7527275 2.6780624zm-0.55656433 -1.6171722q1.4248695 -0.6412201 1.2430382 -2.529831q-0.18824387 -1.9028625 -1.4260063 -4.6527634q-1.4301643 -3.1773376 -2.8195915 -4.7795258q-1.3815918 -1.6228485 -2.9062004 -0.9367447q-1.4676132 0.6604538 -1.3520355 2.6302795q0.123413086 1.949173 1.3547668 4.684822q1.3403778 2.9778671 2.7682838 4.6655426q1.4421539 1.6812668 3.137745 0.9182205zm14.476002 -4.6468353q-2.094551 0.9425888 -3.9740677 0.38339233q-1.8716812 -0.57984924 -3.29245 -2.0993958q-1.4271774 -1.5337982 -2.3250427 -3.5285416q-0.8657913 -1.9235001 -1.0077477 -4.10421q-0.14836884 -2.194954 0.695034 -4.0137787q0.85124207 -1.8394852 2.7890625 -2.7115402q1.9805679 -0.8912964 3.8522415 -0.3114395q1.8716812 0.5798569 3.305275 2.1278992q1.4414291 1.5273819 2.3264618 3.4936295q0.86579895 1.9235001 1.0220032 4.0977936q0.17045593 2.1678848 -0.63803864 3.9881363q-0.8149109 1.8059998 -2.7527313 2.6780548zm-0.55656433 -1.6171722q1.4248734 -0.6412201 1.243042 -2.529831q-0.18824768 -1.9028625 -1.4260101 -4.6527557q-1.4301605 -3.1773453 -2.8195877 -4.7795334q-1.3815918 -1.6228485 -2.9062042 -0.9367447q-1.4676132 0.6604538 -1.3520355 2.6302872q0.123413086 1.9491653 1.3547668 4.6848145q1.3403778 2.9778671 2.7682877 4.66555q1.4421539 1.6812592 3.137741 0.9182129zm9.191872 -11.247231q-1.2823868 0.57709503 -2.4857407 0.41612244q-1.2033615 -0.1609726 -2.117508 -0.897583q-0.9205551 -0.7508621 -1.4207916 -1.8622208q-0.48099518 -1.0686111 -0.43763733 -2.304657q0.057609558 -1.2424622 0.7158356 -2.2925797q0.6660614 -1.0707855 1.9341965 -1.6414642q1.2538834 -0.56427765 2.4415665 -0.36198425q1.1955261 0.181633 2.1160812 0.9324951q0.9141464 0.73661804 1.3759079 1.7624817q0.51947784 1.1541061 0.4191208 2.4157944q-0.08610535 1.2552872 -0.7507477 2.2911606q-0.66464233 1.0358734 -1.7902832 1.5424347zm0.54132843 7.1412582l5.8490753 -20.314758l2.2500076 0.7351532l-6.0856094 20.284126l-2.0134735 -0.7045212zm-1.3016663 -8.906609q0.72667694 -0.32701874 0.74015045 -1.1726608q0.02771759 -0.8520508 -0.38915253 -1.778183q-0.48099518 -1.0686111 -1.2284241 -1.7774429q-0.7331772 -0.7152481 -1.4741058 -0.38181305q-0.7409363 0.33342743 -0.7429962 1.2424774q-0.002067566 0.90904236 0.3763199 1.7496872q0.48099518 1.0686111 1.193512 1.7760162q0.7125168 0.7074127 1.5246964 0.34191895zm13.909737 4.826233q-1.2966309 0.5835037 -2.4999847 0.42253876q-1.2033539 -0.1609726 -2.1175003 -0.89759064q-0.90631104 -0.7572708 -1.4065475 -1.8686295q-0.4874115 -1.0828629 -0.43763733 -2.304657q0.04335785 -1.2360458 0.7158356 -2.2925797q0.6660614 -1.0707855 1.9341965 -1.6414719q1.2396317 -0.5578537 2.4351578 -0.3762207q1.1955185 0.181633 2.1018295 0.9389038q0.9205551 0.7508621 1.3823166 1.7767334q0.5130615 1.1398544 0.4191208 2.4157944q-0.08610535 1.2552795 -0.7507477 2.291153q-0.66464233 1.0358734 -1.7760391 1.536026zm-0.7745819 -1.758934q0.72667694 -0.32702637 0.75439453 -1.1790771q0.021308899 -0.8663025 -0.3891449 -1.778183q-0.48099518 -1.0686111 -1.2284241 -1.7774429q-0.7331772 -0.7152481 -1.4883575 -0.37540436q-0.74092865 0.33343506 -0.7572479 1.2488861q-0.0020599365 0.90905 0.3763275 1.7496872q0.48099518 1.0686188 1.207756 1.7696152q0.7267685 0.7009964 1.5246964 0.34191895zm11.785881 -5.3552704q0.571373 -0.2913971 0.81929016 -0.54003906q0.25574493 -0.26930237 0.25357056 -0.7309494q0.0056610107 -0.4822998 -0.37913513 -1.3371964l-3.7710114 -8.377922q-0.5515442 -1.2253418 -0.8059616 -2.0189667l-1.6065292 0.8086395l-0.7567673 -1.681282l6.2836685 -2.8277664l0.6477432 1.439064q-0.5856247 0.2978096 -0.8413696 0.56710815q-0.24791718 0.24864197 -0.2393341 0.7245369q0.0021743774 0.46164703 0.38697815 1.316536l1.5327759 3.4053154l6.0129395 -2.7059364l-1.4237518 -3.1630936q-0.66056824 -1.4675636 -0.805954 -2.0189705l-1.6065292 0.8086395l-0.7567749 -1.681282l6.2836685 -2.8277664l0.6477432 1.4390678q-0.58561707 0.2978058 -0.8413696 0.56710815q-0.24791718 0.24863815 -0.23932648 0.7245331q0.0021743774 0.46164703 0.38697052 1.316536l3.771019 8.377926q0.5515442 1.2253418 0.79953766 2.0047226q0.6725311 -0.37119293 1.6129456 -0.79439545l0.7567673 1.681282l-6.283661 2.8277664l-0.6477432 -1.439064q0.57136536 -0.2913971 0.81928253 -0.54003906q0.25575256 -0.26929474 0.2535782 -0.7309418q0.0056610107 -0.48230743 -0.37913513 -1.3371964l-1.5969162 -3.5477982l-5.980873 2.777176l1.4558182 3.2343369q0.5515442 1.2253418 0.7852936 2.0111313q0.68678284 -0.37760162 1.6271973 -0.80080414l0.7567673 1.681282l-6.2836685 2.8277664l-0.6477432 -1.439064zm21.006271 -7.2942886q-1.3821259 0.62197876 -2.5520172 0.15466309q-1.169899 -0.46730804 -1.7406845 -1.7353973q-0.8657913 -1.9235001 0.4806137 -3.7288094q1.3463974 -1.8053017 3.8235168 -3.0399933l-0.5130615 -1.1398544q-0.89785767 -1.9947433 -2.3939667 -1.3214645q-0.95466614 0.42961502 -1.2915878 1.3180084q0.39757538 0.19804001 0.6284485 0.71097565q0.23729706 0.5271797 0.05922699 1.1213417q-0.17023468 0.5735016 -0.86841583 0.8876991q-0.6554413 0.29496002 -1.2183075 0.03422928q-0.5628586 -0.26072693 -0.8514557 -0.9018936q-0.38480377 -0.85489273 -0.06711578 -1.7860298q0.31768036 -0.9311409 1.2117462 -1.7618446q0.9019089 -0.85136414 2.1700363 -1.4220467q4.046623 -1.8210564 5.9321365 2.3679047l1.6018982 3.5969505q0.46817017 1.0401154 0.76605225 1.9683876q0.6946106 -0.39826202 1.392807 -0.71245575l0.75035095 1.6670341l-4.1321106 1.8595276q-0.17102051 -0.26572418 -0.5408478 -0.97314453l-0.02848816 0.012825012q-0.7094574 1.9641571 -2.6187744 2.8233871zm0.41371155 -2.7734528q0.9831543 -0.44244385 1.3713531 -1.5595245l-1.1030731 -2.4506836q-1.2389145 0.7117386 -1.8422928 1.6172409q-0.6033859 0.9054947 -0.19934845 1.8031311q0.26294708 0.5841751 0.7474289 0.7088394q0.4987259 0.11824036 1.0259323 -0.119003296zm7.1608734 -2.7770348q0.59843445 -0.26931 0.7665558 -0.6191139q0.16810608 -0.3498001 0.06619263 -0.7665634q-0.09408569 -0.4374199 -0.41474915 -1.1498299l-4.0467834 -8.990593q-0.47457886 -1.0543671 -0.7674713 -1.9334793l-1.4989624 0.7430916l-0.75035095 -1.6670341q1.3678741 -0.61557007 2.1394196 -1.185524q0.7651367 -0.5842056 0.9282532 -0.9831619l1.1826477 -0.5322113l5.8553314 13.008579q0.46817017 1.0401154 0.78030396 1.9619751q0.6946106 -0.39826202 1.392807 -0.71245956l0.75035095 1.667038l-5.742218 2.5841026l-0.6413269 -1.4248161zm10.722015 -2.6833267q-1.3821106 0.6219826 -2.5520172 0.15467072q-1.1698914 -0.46731567 -1.7406769 -1.7354012q-0.86579895 -1.9235039 0.48060608 -3.7288094q1.346405 -1.8053017 3.823532 -3.0399933l-0.5130615 -1.1398544q-0.8978729 -1.9947433 -2.393982 -1.3214645q-0.9546509 0.42961502 -1.2915802 1.3180084q0.39756775 0.19804001 0.6284485 0.71097565q0.23728943 0.5271797 0.05921936 1.1213417q-0.17022705 0.5735016 -0.8684082 0.8876991q-0.6554413 0.29496002 -1.2183075 0.03422928q-0.5628662 -0.26072693 -0.8514557 -0.90189743q-0.38479614 -0.8548889 -0.06712341 -1.786026q0.317688 -0.9311409 1.2117615 -1.7618446q0.90190125 -0.85136414 2.1700287 -1.4220467q4.046631 -1.8210564 5.932129 2.3679047l1.6018982 3.5969505q0.46817017 1.0401154 0.76605225 1.9683876q0.69462585 -0.39826202 1.392807 -0.71245575l0.75035095 1.6670341l-4.1321106 1.8595276q-0.17100525 -0.26572418 -0.5408325 -0.97314453l-0.028503418 0.012825012q-0.70944214 1.9641533 -2.6187744 2.8233833zm0.41371155 -2.7734528q0.98316956 -0.44244003 1.3713684 -1.5595207l-1.1030884 -2.4506836q-1.2389069 0.7117386 -1.8422852 1.6172371q-0.6033783 0.9055023 -0.19934082 1.8031349q0.26293945 0.5841751 0.74742126 0.7088356q0.49873352 0.118247986 1.0259247 -0.119003296zm7.1608734 -2.777031q0.5984497 -0.2693138 0.7665558 -0.6191139q0.16812134 -0.3498001 0.066207886 -0.7665634q-0.09408569 -0.4374199 -0.41474915 -1.1498299l-4.0467834 -8.990593q-0.47459412 -1.0543671 -0.7674866 -1.9334793l-1.4989471 0.7430916l-0.75035095 -1.6670341q1.3678589 -0.61557007 2.1394196 -1.185524q0.76512146 -0.5842056 0.9282532 -0.9831619l1.1826324 -0.5322113l5.8553314 13.008579q0.46817017 1.0401154 0.78030396 1.9619751q0.69462585 -0.39826202 1.392807 -0.71245956l0.75035095 1.667038l-5.742218 2.5841026l-0.6413269 -1.4248161z" fill-rule="nonzero"/><path fill="#ffff00" d="m72.723335 101.20846l66.341835 -29.85505l23.641953 52.524452l-66.34183 29.85505l-23.64196 -52.524452z" fill-rule="nonzero"/><path fill="#ff0000" d="m108.32642 127.54438q1.4814682 3.2913284 -0.7902298 7.3806686q-2.278122 4.0750885 -6.652458 6.043625q-3.661911 1.647934 -6.561699 0.72543335q-2.8855362 -0.9289093 -4.3734207 -4.234482q-1.3980942 -3.1061096 -1.6676254 -5.7605743q-0.30445862 -2.9985504 0.5465317 -7.9220963l1.7291641 0.30130768q-0.5447693 3.2436523 -0.42988586 5.4022675q0.1291275 2.1522217 0.95002747 3.9759827q0.87220764 1.9377441 2.7923203 2.3587341q1.9136963 0.40673828 4.5497055 -0.7795105q3.76165 -1.69281 5.4585266 -4.204132q1.6968765 -2.511322 0.6386795 -4.862274q-0.18598175 -0.41319275 -0.2885971 -0.6411667q-0.10902405 -0.24221802 -0.16674805 -0.37045288q-0.37197113 -0.8263931 -0.96338654 -1.7596436q-0.5978317 -0.94750214 -2.5851135 -3.839859q-3.2028809 -4.641304 -6.4043427 -9.317528l-1.4149704 -0.28848267q-0.942749 -2.0944824 -0.9196625 -7.2965546l1.1948013 0.027748108q0.049186707 0.33768463 0.22234344 0.7223816q0.38479614 0.8548889 1.4912567 0.99092865q1.6379547 0.13674164 3.093521 0.28701782q0.58509064 1.9470215 0.7020035 2.8539276q0.12475586 0.8862457 0.095703125 2.8012238l-0.75662994 0.032081604q0.1410904 0.31345367 2.240242 3.3782196q2.1069946 3.044098 3.6183014 5.259674q2.156868 3.1929932 2.4967728 3.948143l2.154869 4.7873917zm10.723984 -17.05986q0.28860474 0.6411667 0.3328247 1.2723694q0.05847168 0.6247864 -0.056854248 1.739006q-2.5365448 -2.2853622 -4.875641 -3.4087753q-2.3312607 -1.1440735 -4.898979 -1.2907639q0.4104538 0.9118881 0.389122 1.4355164q-0.027740479 0.5093765 -0.41246033 0.68250275q-0.6411896 0.28855133 -2.9025726 -0.16733551q-2.421692 -0.46941376 -3.772583 -1.300766q-0.9483261 -0.5841522 -1.9594269 -2.031044q-0.99684906 -1.4533005 -1.4457779 -2.450676q-0.6926346 -1.5388031 0.11953735 -1.9042969q1.2681351 -0.5706787 4.4286346 -0.21099854q3.1747513 0.35326385 6.3053894 1.446022q7.0172043 2.3422318 8.748787 6.1892395zm13.194603 6.9300156l-1.5531006 0.69892883q-1.3536224 0.60915375 -3.5381622 -1.0464401q-2.3405762 -1.7738495 -3.706604 -4.808716q0.64601135 6.46019 -1.7881699 10.074348q-2.345848 3.5058746 -9.085472 6.5388336l-2.4985046 1.0729675l-0.6156769 -1.3678131q1.2951508 -1.2339554 2.5746307 -2.4265747q1.2730713 -1.206871 1.8408432 -1.925003q3.3660355 -4.1705933 4.4559555 -5.8604813q1.9340897 -3.0121536 2.287262 -5.5013504q0.39233398 -2.935173 -1.0955505 -6.2407455q-0.8978653 -1.9947433 -2.0578918 -3.734436q-1.1457748 -1.7461014 -2.3072205 -3.450882q-0.6541519 -1.4533157 -0.17583466 -7.0144653q2.7532043 3.1473846 5.707527 8.9114685q2.0500793 4.0977707 4.122238 8.168465q1.9388809 3.3939056 3.2640076 2.7975693l1.5531006 -0.6989212l2.616623 5.8132477zm22.91188 -10.3107605l-24.40799 10.984039l-2.616623 -5.8132553l15.203339 -6.8417816q-3.7925415 -1.4973907 -6.51915 -1.6925125q-2.420227 -0.16165161 -4.2725677 0.6719284q-0.5556946 0.2500763 -1.0002441 0.5186691q-0.4367218 0.24793243 -1.216095 0.8385544q-0.04373169 -3.2187042 0.8181915 -5.1486664q0.8761749 -1.9363785 2.7142487 -2.7635498q1.410614 -0.6348038 3.015091 -0.5343933q1.6187134 0.09398651 3.9228668 0.8733063q1.821106 0.619751 5.320114 2.1121674q2.4039154 1.0771103 3.4882965 1.2402191q1.0922089 0.14245605 2.933899 -0.25798035l2.616623 5.8132553z" fill-rule="nonzero"/></g></svg>